# xmcd
#
# Track frame offsets:
#	150
#	15303
#	28615
#	41574
#	54613
#	71072
#	85628
#	100240
#	116034
#	127924
#	142383
#	156533
#	169673
#	182739
#	196851
#	208184
#	222672
#	235914
#	247505
#	261598
#
# Disc length: 3753
#
# Revision: 1
# Processed by: cddbd v1.5.1PL0 Copyright (c) Steve Scherf et al.
# Submitted via: CDex 1.51
# Normalized: r0:DSETVAR1,TDELIM( - ),TSWAP
#
DISCID=250ea714
DTITLE=Various Artist - Le petit dictionnaire du jazz classique CD 3
DYEAR=2004
DGENRE=Jazz
TTITLE0=Stan Kenton - Artistry In Rythm
TTITLE1=John Kirby - Front And Center
TTITLE2=Andy Kirk - McGhee Special
TTITLE3=Lee Konitz - Ezz-Thetic
TTITLE4=Tommy Ladnier - Really The Blues
TTITLE5=Jimmie Lunceford - Rythm In Our Business
TTITLE6=Jay McShann - Sepian Bounce
TTITLE7=Glenn Miller - Tuxedo Junction
TTITLE8=Lucky Millinder (& Rosetta Tharpe) - That's All
TTITLE9=Thelonious Monk - 'Round About Midnight
TTITLE10=Jelly Roll Morton - The Chant
TTITLE11=Gerry Mulligan - Bernie's Tune
TTITLE12=fats Navarro - The Tadd Walk
TTITLE13=Jimmie Noone - Apex Blues
TTITLE14=King Oliver - Dippermouth Blues
TTITLE15=Kid Ory - Ory's Creole Trombone
TTITLE16=Charlie Parker - Koko
TTITLE17=Oscar Peterson - Smiles
TTITLE18=Bud Powell - Wail
TTITLE19=Ike Quebec - She's Funny That Way
EXTD=YEAR: 2004
EXTT0=
EXTT1=
EXTT2=
EXTT3=
EXTT4=
EXTT5=
EXTT6=
EXTT7=
EXTT8=
EXTT9=
EXTT10=
EXTT11=
EXTT12=
EXTT13=
EXTT14=
EXTT15=
EXTT16=
EXTT17=
EXTT18=
EXTT19=
PLAYORDER=
